<?xml version="1.0" encoding="UTF-8"?>
<!DOCTYPE svg PUBLIC "-//W3C//DTD SVG 1.1//EN" "http://www.w3.org/Graphics/SVG/1.1/DTD/svg11.dtd">
<!-- Creator: CorelDRAW -->
<svg xmlns="http://www.w3.org/2000/svg" xml:space="preserve" width="91.44mm" height="91.44mm" version="1.1" style="shape-rendering:geometricPrecision; text-rendering:geometricPrecision; image-rendering:optimizeQuality; fill-rule:evenodd; clip-rule:evenodd"
viewBox="0 0 9144 9144"
 xmlns:xlink="http://www.w3.org/1999/xlink"
 xmlns:xodm="http://www.corel.com/coreldraw/odm/2003">
 <defs>
  <style type="text/css">
   <![CDATA[
    .fil0 {fill:white}
    .fil2 {fill:#84189A;fill-rule:nonzero}
    .fil3 {fill:#87189D;fill-rule:nonzero}
    .fil1 {fill:#FF6900;fill-rule:nonzero}
   ]]>
  </style>
 </defs>
 <g id="Camada_x0020_1">
  <metadata id="CorelCorpID_0Corel-Layer"/>
  <rect class="fil0" width="9144" height="9144"/>
  <g id="_2081735892240">
   <path class="fil1" d="M3523.78 5442c-20.17,0 -36.52,16.36 -36.52,36.52 0,20.17 16.35,36.53 36.52,36.53 20.18,0 36.55,-16.36 36.55,-36.53 0,-20.16 -16.37,-36.52 -36.55,-36.52z"/>
   <path class="fil1" d="M3529.14 5543.06c-13.87,0.1 -36.36,12.89 -36.36,36.5l0 435.86c0,10.21 3.87,18.49 11.7,25.79 7.27,6.82 15.56,11.21 24.81,11.21 10.24,0 19.99,-4.87 29.23,-14.6 2.15,-2.26 6.8,-16.57 6.8,-21.94l0 -435.84c0,-31.44 -22.74,-36.9 -36.18,-36.98z"/>
   <path class="fil1" d="M3943.3 5556.21c-119.27,0.28 -201.62,101.99 -201.62,199.64l0 261.02c0,13.51 8.64,35.55 34.59,35.55 23.49,0 36.51,-17.15 36.51,-35.55l0 -258.1c0,-81.04 66.48,-131 130.01,-131 55.08,0 130.55,40.35 130.55,131l0 258.1c0,15.55 9.82,35.55 36.03,35.55 26.36,0 36.05,-20.57 36.05,-35.55l0 -258.1c0,-109.22 -93.16,-202.28 -202.12,-202.56z"/>
   <path class="fil1" d="M4595.48 5979.37l-0.5 -0.48c-80.22,0 -184.07,-65.58 -184.07,-183.12l0 -172.86 143.19 0c14.5,0 36.5,-8.66 36.5,-36.54 0,-22.57 -20.43,-37.01 -36.5,-37.01l-143.19 0 0 -153.38c0,-23.62 -19.31,-36.54 -36.52,-36.54 -22.6,0 -37.51,20.46 -37.51,36.54l0 404.17c0,143.06 81.57,252.26 258.1,252.26 15.2,0 37.52,-14.36 37.52,-36.52 0,-15.32 -14.88,-36.52 -37.02,-36.52z"/>
   <path class="fil1" d="M7553.09 5979.37l-0.5 -0.48c-80.22,0 -184.07,-65.58 -184.07,-183.12l0 -172.86 143.2 0c14.5,0 36.5,-8.66 36.5,-36.54 0,-22.57 -20.44,-37.01 -36.5,-37.01l-143.2 0 0 -153.38c0,-23.62 -19.31,-36.54 -36.52,-36.54 -22.6,0 -37.5,20.46 -37.5,36.54l0 404.17c0,143.06 81.56,252.26 258.09,252.26 15.2,0 37.52,-14.36 37.52,-36.52 0,-15.32 -14.88,-36.52 -37.02,-36.52z"/>
   <path class="fil1" d="M6199.03 5557.19c-54.83,0.11 -101.9,19.57 -141.21,58.9 -39.95,39.44 -60.4,86.19 -60.4,140.72l0 261.02c0,11.21 3.42,19.48 10.24,24.85 3.39,4.37 7.32,7.3 11.22,8.77 3.86,1.44 8.26,1.94 13.13,1.94 10.69,0 19.45,-3.41 26.29,-10.71 6.82,-5.85 10.21,-14.14 10.21,-24.85l0 -258.09c0,-36.52 12.7,-67.68 38.01,-93.02 25.79,-25.32 56.47,-37.98 92.01,-37.98 35.56,0 66.22,12.66 92.05,37.98 25.81,25.34 38.49,56.5 38.49,93.02l0 258.09c0,8.77 3.39,17.05 9.73,24.35 6.31,7.32 15.1,11.21 26.31,11.21 11.17,0 19.93,-3.41 26.27,-10.71 3.91,-3.43 6.36,-6.82 7.8,-10.71 1.46,-3.91 1.96,-8.77 1.96,-14.14l0 -258.09c0,-55.51 -19.99,-103.24 -59.42,-142.69 -39.82,-39.81 -87.38,-59.75 -142.69,-59.86z"/>
   <path class="fil1" d="M5233.44 5764.13l-343.31 0c20.08,-83.97 93.22,-135.39 171.43,-135.39 13.24,0 138.43,2.42 172.38,134.41l-0.5 0.98zm-170.43 -209.9c-117.66,0 -248.87,87.14 -248.87,242.03 0,0 -6.92,102.85 72.58,183.11 46.97,47.43 103.33,70.61 167.27,72.62l0 0.42 111.14 0c14.48,0 36.48,-8.67 36.48,-36.52 0,-22.58 -20.41,-37.01 -36.48,-37.01l-111.14 0 0 0.08c-92.64,-4.13 -154.67,-78.21 -165.32,-145.2l386.18 0c18.01,0 29.68,-8.76 34.58,-26.29 0,-0.02 0,-253.24 -246.42,-253.24z"/>
   <path class="fil1" d="M7027.88 5764.13l-343.31 0c20.08,-83.97 93.22,-135.39 171.43,-135.39 13.24,0 138.43,2.42 172.38,134.41l-0.5 0.98zm-170.43 -209.9c-117.66,0 -248.87,87.14 -248.87,242.03 0,0 -6.92,102.85 72.58,183.11 46.97,47.43 103.33,70.61 167.27,72.62l0 0.42 111.14 0c14.48,0 36.48,-8.67 36.48,-36.52 0,-22.58 -20.42,-37.01 -36.48,-37.01l-111.14 0 0 0.08c-92.64,-4.13 -154.68,-78.21 -165.32,-145.2l386.18 0c18.01,0 29.68,-8.76 34.58,-26.29 0,-0.02 0,-253.24 -246.42,-253.24z"/>
   <path class="fil1" d="M5808.67 5587.21c-35.75,-23.54 -74.34,-33.97 -111.93,-34.25l-0.09 -0.23c-3.07,0 -6.2,0.11 -9.35,0.29 -0.26,0 -0.5,-0.02 -0.76,0l0 0.04c-40.27,2.35 -86.14,18.57 -123.32,48.77l0 -38.66c0,-19.9 -16.13,-36.02 -36.02,-36.02 -19.9,0 -36,16.12 -36,36.02l0 190.38c-0.02,0.58 -0.06,1.16 -0.06,1.76l0 263.93c0,32.15 17.53,36.54 36.52,36.54 14.68,0 35.56,-10.69 35.56,-36.04l0 -260.53c0,-78.28 65.24,-132.41 131.68,-133.35 1.75,0 3.49,0.04 5.25,0.1 1.53,0.06 3.07,0.12 4.66,0.26 20.53,1.56 42.01,8.28 63.43,22.4 14.12,9.29 37.17,9.52 50.26,-10.35 12.8,-19.45 2.12,-43.19 -9.83,-51.06z"/>
   <path class="fil2" d="M6670.96 3409.28l-1.42 0 0 0c-67.65,0.92 -133.59,67.32 -133.59,134.97l0 1243.1c0,76.83 72.58,136.42 135.01,136.42 53.69,0 133.55,-35.94 133.55,-134.99l0 -1243.11c0,-62.61 -35.02,-135.69 -133.55,-136.39z"/>
   <path class="fil2" d="M7835.07 4681.21c-521.16,-121.08 -590.88,-341.87 -590.31,-541.96l0 -903.79c0,-80.4 -71.16,-136.42 -134.99,-136.42 -55.02,0 -136.42,43.37 -136.42,136.42l0 919.46c0,715.47 772.09,762.38 781.13,762.8l1.3 0c95.15,0 136.06,-59.14 142.58,-114.68 6.88,-58.48 -20.92,-111.99 -63.29,-121.83z"/>
   <path class="fil2" d="M3755.76 3417.81l272.36 -117.73c53.17,-22.97 77.64,-84.69 54.68,-137.86l0 0c-22.99,-53.17 -84.72,-77.63 -137.88,-54.65l-272.37 117.7c-53.17,22.99 -77.64,84.71 -54.65,137.88 22.96,53.17 84.69,77.63 137.86,54.66z"/>
   <path class="fil2" d="M3934.46 4686.76c-282.96,0 -512.36,-229.39 -512.36,-512.35 0,-282.98 229.4,-512.37 512.36,-512.37 282.96,0 512.35,229.39 512.35,512.37 0,282.96 -229.39,512.35 -512.35,512.35zm629.33 -1279.92c-73.28,0 -132.69,59.4 -132.69,132.66l0 49.94c-132.76,-113.81 -305.27,-182.6 -493.88,-182.6 -419.31,0 -759.25,339.91 -759.25,759.23 0,419.33 339.94,759.25 759.25,759.25 188.61,0 361.12,-68.79 493.88,-182.62l0 48.39c0,73.28 59.41,132.69 132.69,132.69 73.28,0 132.69,-59.41 132.69,-132.69l0 -1251.59c0,-73.26 -59.41,-132.66 -132.69,-132.66z"/>
   <path class="fil2" d="M5618.19 4693.18c-282.95,0 -512.35,-229.39 -512.35,-512.35 0,-282.98 229.4,-512.38 512.35,-512.38 282.97,0 512.36,229.4 512.36,512.38 0,282.96 -229.39,512.35 -512.36,512.35zm-0.23 -1271.41c-475.49,4.16 -759.72,385.31 -759.72,751.42 0,465 394.47,752.83 759.95,752.83 233.75,0 404.84,-109.02 491.5,-180.07 -21.96,226.6 -306.14,321.4 -309.11,322.32 -105.79,32.98 -379.59,27.74 -379.61,27.74 -74.66,0 -135.43,60.75 -135.43,135.43 0,74.69 60.77,135.44 135.43,135.44 0.02,0 430.45,50.8 721.69,-182.73 145.14,-116.4 224.34,-259.07 235.43,-424.05l0.06 -587.07c0,-57.18 -10.47,-352.74 -217.38,-557.88 -131.38,-130.28 -313.51,-195.22 -542.81,-193.38z"/>
   <path class="fil2" d="M6671.74 3099.04c-74.73,0 -135.29,60.58 -135.29,135.31 0,74.72 60.56,135.29 135.29,135.29 74.73,0 135.31,-60.57 135.31,-135.29 0,-74.73 -60.58,-135.31 -135.31,-135.31z"/>
   <path class="fil3" d="M7469.53 3099.73c-42.54,0 -77.15,34.62 -77.15,77.15 0,42.54 34.61,77.16 77.15,77.16 42.54,0 77.16,-34.62 77.16,-77.16 0,-42.53 -34.62,-77.15 -77.16,-77.15zm0 165.84c-48.89,0 -88.69,-39.79 -88.69,-88.69 0,-48.89 39.8,-88.68 88.69,-88.68 48.9,0 88.68,39.79 88.68,88.68 0,48.9 -39.78,88.69 -88.68,88.69z"/>
   <path class="fil3" d="M7504.24 3206.96l0 0.1 0 0.1c0.52,0.72 0.92,1.44 1.12,2.27 0.2,0.82 0.32,1.74 0.32,2.86 -0.12,2.37 -1.14,4.11 -2.99,5.14l0.1 -0.1c-9.42,7.8 -20.32,11.71 -32.73,11.71 -14.28,0 -26.69,-4.93 -36.96,-15.2 -10.27,-10.27 -15.3,-22.68 -15.3,-36.96 0,-14.46 5.13,-26.8 15.3,-36.84 10.37,-10.17 22.68,-15.31 36.96,-15.31 5.94,0 11.69,1.03 17.25,2.97 5.53,1.97 10.57,4.74 15.18,8.32 0.92,0.73 1.64,1.55 2.15,2.37 0.52,0.82 0.82,1.94 1.04,3.39 0,0.92 -0.22,1.85 -0.52,2.77 -0.3,0.92 -0.72,1.74 -1.23,2.57 -0.61,0.72 -1.34,1.32 -2.06,1.74 -0.7,0.4 -1.62,0.72 -2.77,0.82l-1.02 0c-1.55,0 -3.09,-0.52 -4.61,-1.64 -3.4,-2.57 -7.08,-4.61 -11.09,-6.06 -4.02,-1.44 -8.01,-2.16 -12.12,-2.16 -10.17,0 -18.89,3.61 -26.19,10.88 -7.28,7.29 -10.87,16.03 -10.87,26.18 0,10.26 3.59,18.99 10.87,26.19 7.2,7.18 15.93,10.77 26.19,10.77 8.93,0 16.73,-2.77 23.41,-8.2 1.44,-1.15 2.86,-1.77 4.41,-1.77l1.02 0c2.17,0.32 3.91,1.35 5.24,3.09l-0.1 0z"/>
   <path class="fil1" d="M2628.62 4535.48l-999.49 1394.68c-57.25,82.48 -115.24,-1.22 -108.3,-57.39l131.77 -1079.82 542.73 -1.98c75.35,0 168.85,-48.39 184.31,-184.13l19.65 -167.38 6.6 0 196.3 0c25.71,0 33.52,22.6 35.96,31.28 2.45,8.67 8.94,38.99 -9.53,64.74zm-1061.32 170.47l-196.3 0c-25.71,0 -33.52,-22.58 -35.96,-31.29 -2.43,-8.66 -8.94,-38.98 9.53,-64.73l999.49 -1394.69c57.26,-82.46 115.24,1.23 108.32,57.41l-131.78 1079.83 -542.74 1.96c-75.34,0 -168.85,48.4 -184.31,184.15l-19.65 167.36 -6.6 0zm94.16 -2.12l18.69 -154.79c9.11,-79.84 53.89,-107.37 97.71,-107.37l530.34 0 3.53 -0.08 -18.69 154.78c-9.11,79.84 -53.89,107.38 -97.71,107.38l-530.34 0 -3.53 0.08zm1060.7 -256.49c-16.08,-57.76 -63.17,-95.1 -119.97,-95.1l-192.65 0 0.02 -0.18 -1.06 0 130.44 -1068.71c8.32,-67.3 -26.76,-153.64 -99.9,-181.58 -46.64,-17.87 -115.07,-10.47 -165.87,62.7l-999.52 1394.62c-27.84,38.84 -36.26,90.95 -22.62,139 16.08,57.74 63.17,95.08 119.97,95.08l192.65 0 -0.02 0.18 1.06 0 -130.44 1068.73c-8.32,67.28 26.76,153.62 99.9,181.58 46.64,17.85 115.07,10.45 165.88,-62.71l999.51 -1394.62c27.84,-38.86 36.26,-90.96 22.62,-138.99z"/>
  </g>
 </g>
</svg>
